
<svg width="58px" height="34px" viewBox="0 0 58 34" version="1.1" xmlns="http://www.w3.org/2000/svg" xmlns:xlink="http://www.w3.org/1999/xlink">
    <defs>
        <linearGradient x1="8.62748718%" y1="12.9687699%" x2="76.2698304%" y2="78.1004268%" id="linearGradient-1">
            <stop stop-color="#FFDA5F" offset="0%"></stop>
            <stop stop-color="#FF8833" offset="100%"></stop>
        </linearGradient>
    </defs>
    <g id="Brand-Guideline-Reference-Sheet" stroke="none" stroke-width="1" fill="none" fill-rule="evenodd">
        <g id="A4" transform="translate(-342.000000, -176.000000)">
            <g id="Secondary-logo" transform="translate(284.000000, 142.000000)">
                <g id="helio-logo-2" transform="translate(57.000000, 12.000000)">
                    <path d="M55.3473633,34.654208 C54.4517633,35.103808 53.4597633,35.334208 52.4573633,35.321008 C50.5181633,35.295808 48.3077633,35.000208 47.1261633,33.934208 C44.7273633,31.767408 40.9001633,27.937408 40.9001633,27.937408 C40.9001633,27.937408 40.3041633,27.365408 39.9661633,25.883008 C39.9641633,25.498608 39.9617633,25.126208 39.9597633,24.742208 C40.0085633,24.484608 40.0341633,24.219008 40.0341633,23.947408 C40.0341633,21.531808 38.0185633,19.584208 35.5753633,19.695808 C33.4073633,19.795008 31.6229633,21.579008 31.5241633,23.747408 C31.4121633,26.190208 33.3597633,28.205808 35.7753633,28.205808 C36.3229633,28.205808 36.8489633,28.101008 37.3305633,27.912608 C38.2713633,27.846208 39.4777633,28.612608 40.3937633,29.506608 C41.9693633,31.047008 44.4213633,33.695008 45.3597633,34.715008 C45.6677633,35.049808 45.9297633,35.423008 46.1313633,35.831008 C46.4389633,36.453408 46.8665633,37.481808 47.1765633,38.871808 C47.5053633,40.347808 47.3097633,41.903808 46.6081633,43.243408 C45.1617633,46.002608 58.0313633,33.307808 55.3473633,34.654208 Z" id="Fill-128" fill="url(#linearGradient-1)" transform="translate(43.618181, 31.664182) rotate(-242.000000) translate(-43.618181, -31.664182) "></path>
                    <path d="M18.4570312,30.4238281 C16.0937382,30.4238281 14.0820396,31.2636635 12.421875,32.9433594 C10.7421791,34.6230553 9.90234375,36.6445194 9.90234375,39.0078125 C9.90234375,41.3711056 10.7421791,43.3925697 12.421875,45.0722656 C14.0820396,46.7324302 16.0937382,47.5625 18.4570312,47.5625 C20.8203243,47.5625 22.8417885,46.7324302 24.5214844,45.0722656 C26.2011803,43.3925697 27.0410156,41.3711056 27.0410156,39.0078125 C27.0410156,36.6445194 26.2011803,34.6230553 24.5214844,32.9433594 C22.8417885,31.2636635 20.8203243,30.4238281 18.4570312,30.4238281 Z M6.4453125,26.9667969 C9.7656416,23.6464678 13.7695078,21.9863281 18.4570312,21.9863281 C23.164086,21.9863281 27.1777178,23.6464678 30.4980469,26.9667969 C33.818376,30.287126 35.4785156,34.3007577 35.4785156,39.0078125 C35.4785156,43.6953359 33.818376,47.6992021 30.4980469,51.0195312 C27.1777178,54.3398604 23.164086,56 18.4570312,56 C13.7695078,56 9.7656416,54.3398604 6.4453125,51.0195312 C3.1249834,47.6992021 1.46484375,43.6953359 1.46484375,39.0078125 C1.46484375,34.3007577 3.1249834,30.287126 6.4453125,26.9667969 Z" id="o" fill="#FF8833"></path>
                </g>
            </g>
        </g>
    </g>
</svg>